<svg xmlns="http://www.w3.org/2000/svg" viewBox="0 0 51.35 58.37"><defs><style>.cls-1{fill:#faf7f9;stroke:#7a7a7a;stroke-width:0.25px;}.cls-1,.cls-2{stroke-miterlimit:10;}.cls-2{fill:#fefefe;stroke:#adadad;}.cls-3{fill:#73be1e;}</style></defs><title>Logo svg</title><g id="Calque_2" data-name="Calque 2"><g id="version_4" data-name="version 4"><circle id="assiette_ext" data-name="assiette ext" class="cls-1" cx="26.71" cy="21.05" r="20.14"/><ellipse id="assiette_int" data-name="assiette int" class="cls-2" cx="26.71" cy="21.05" rx="15.07" ry="16.14"/><path id="validé" class="cls-3" d="M36.54,12.48a2.1,2.1,0,0,0-2.95.33L23.81,25.05l-4.3-3.43a2.1,2.1,0,1,0-2.62,3.28l5.92,4.73a2.1,2.1,0,0,0,3-.33.25.25,0,0,0,0-.07l.16-.16L36.87,15.42A2.1,2.1,0,0,0,36.54,12.48Z"/><path id="Fourchette" class="cls-1" d="M7,11a3,3,0,0,0-.1-.84L6.27.13h-.5v9a4.67,4.67,0,0,0-1-.11V.13h-.5L3.71,9.05h-.8V.13h-.5L1.89,9.06a3.15,3.15,0,0,0-.65.11V.32H.74L.14,10.64l0,0a2.77,2.77,0,0,0,0,.42,4.13,4.13,0,0,0,2.22,3.83v25.9A1.21,1.21,0,0,0,3.58,42h.11A1.21,1.21,0,0,0,4.9,40.77v-26A4.19,4.19,0,0,0,7,11Z"/><path id="couteau" class="cls-1" d="M51.22,2A1.84,1.84,0,0,0,49.32.13a1.88,1.88,0,0,0-1.8,1.2c-.65,1.24-1.11,4.39-1.11,8.09,0,4,.53,7.32,1.26,8.33a1.87,1.87,0,0,0,1.14.83v22.3a1.2,1.2,0,0,0,2.39,0V17.14a1,1,0,0,0,0-.17Z"/><path class="cls-1" d="M7.09,45V55.11H5.79V45Z"/><path class="cls-1" d="M9.48,49.81c0-.75,0-1.36-.06-2h1.17l.07,1.2h0a2.67,2.67,0,0,1,2.4-1.37c1,0,2.57.6,2.57,3.09v4.34H14.34V50.92c0-1.17-.44-2.14-1.68-2.14a1.94,1.94,0,0,0-1.86,2v4.37H9.48Z"/><path class="cls-1" d="M24.07,44.46v8.77c0,.65,0,1.38.06,1.88H22.94l-.06-1.26h0a2.69,2.69,0,0,1-2.48,1.42c-1.75,0-3.11-1.48-3.11-3.69,0-2.41,1.49-3.9,3.26-3.9a2.44,2.44,0,0,1,2.19,1.11h0V44.46ZM22.75,50.8a2.57,2.57,0,0,0-.06-.55,2,2,0,0,0-1.9-1.53c-1.37,0-2.18,1.2-2.18,2.8s.72,2.69,2.14,2.69a2,2,0,0,0,1.94-1.58,2.56,2.56,0,0,0,.06-.57Z"/><path class="cls-1" d="M27.73,45.81a.82.82,0,0,1-1.63,0,.8.8,0,0,1,.82-.83A.78.78,0,0,1,27.73,45.81Zm-1.47,9.3V47.85h1.32v7.26Z"/><path class="cls-1" d="M36,47.85c0,.52-.06,1.11-.06,2v4.22c0,1.66-.33,2.68-1,3.31a3.86,3.86,0,0,1-2.64.87,4.65,4.65,0,0,1-2.41-.6l.32-1a4.09,4.09,0,0,0,2.13.57c1.35,0,2.34-.71,2.34-2.54v-.81h0a2.57,2.57,0,0,1-2.31,1.22,3.25,3.25,0,0,1-3.09-3.54c0-2.46,1.61-3.86,3.27-3.86a2.43,2.43,0,0,1,2.27,1.26h0l.06-1.09Zm-1.36,2.86a1.94,1.94,0,0,0-1.92-2c-1.26,0-2.16,1.06-2.16,2.74,0,1.43.72,2.61,2.14,2.61a1.93,1.93,0,0,0,1.83-1.35,2.13,2.13,0,0,0,.11-.7Z"/><path class="cls-1" d="M38.15,44.46h1.32V55.11H38.15Z"/><path class="cls-1" d="M47.77,53.13c0,.75,0,1.41.06,2H46.66l-.08-1.19h0a2.71,2.71,0,0,1-2.4,1.35c-1.14,0-2.5-.63-2.5-3.18V47.85H43v4c0,1.38.42,2.31,1.62,2.31A1.92,1.92,0,0,0,46.33,53a2.11,2.11,0,0,0,.12-.68V47.85h1.32Z"/></g></g></svg>